<?xml version="1.0" encoding="utf-8" standalone="no"?>
<!DOCTYPE svg PUBLIC "-//W3C//DTD SVG 1.1//EN"
  "http://www.w3.org/Graphics/SVG/1.1/DTD/svg11.dtd">
<svg xmlns:xlink="http://www.w3.org/1999/xlink" width="460.8pt" height="345.6pt" viewBox="0 0 460.8 345.6" xmlns="http://www.w3.org/2000/svg" version="1.1">
 <metadata>
  <rdf:RDF xmlns:dc="http://purl.org/dc/elements/1.1/" xmlns:cc="http://creativecommons.org/ns#" xmlns:rdf="http://www.w3.org/1999/02/22-rdf-syntax-ns#">
   <cc:Work>
    <dc:type rdf:resource="http://purl.org/dc/dcmitype/StillImage"/>
    <dc:date>2023-02-22T16:27:26.281449</dc:date>
    <dc:format>image/svg+xml</dc:format>
    <dc:creator>
     <cc:Agent>
      <dc:title>Matplotlib v3.6.2, https://matplotlib.org/</dc:title>
     </cc:Agent>
    </dc:creator>
   </cc:Work>
  </rdf:RDF>
 </metadata>
 <defs>
  <style type="text/css">*{stroke-linejoin: round; stroke-linecap: butt}</style>
 </defs>
 <g id="figure_1">
  <g id="patch_1">
   <path d="M 0 345.6 
L 460.8 345.6 
L 460.8 0 
L 0 0 
z
" style="fill: #ffffff"/>
  </g>
  <g id="axes_1">
   <g id="patch_2">
    <path d="M 57.6 307.584 
L 414.72 307.584 
L 414.72 41.472 
L 57.6 41.472 
z
" style="fill: #ffffff"/>
   </g>
   <g id="matplotlib.axis_1">
    <g id="xtick_1">
     <g id="line2d_1">
      <defs>
       <path id="m80e6727143" d="M 0 0 
L 0 3.5 
" style="stroke: #000000; stroke-width: 0.8"/>
      </defs>
      <g>
       <use xlink:href="#m80e6727143" x="73.616147" y="307.584" style="stroke: #000000; stroke-width: 0.8"/>
      </g>
     </g>
     <g id="text_1">
      <!-- 0 -->
      <g transform="translate(70.434897 322.182437) scale(0.1 -0.1)">
       <defs>
        <path id="DejaVuSans-30" d="M 2034 4250 
Q 1547 4250 1301 3770 
Q 1056 3291 1056 2328 
Q 1056 1369 1301 889 
Q 1547 409 2034 409 
Q 2525 409 2770 889 
Q 3016 1369 3016 2328 
Q 3016 3291 2770 3770 
Q 2525 4250 2034 4250 
z
M 2034 4750 
Q 2819 4750 3233 4129 
Q 3647 3509 3647 2328 
Q 3647 1150 3233 529 
Q 2819 -91 2034 -91 
Q 1250 -91 836 529 
Q 422 1150 422 2328 
Q 422 3509 836 4129 
Q 1250 4750 2034 4750 
z
" transform="scale(0.015625)"/>
       </defs>
       <use xlink:href="#DejaVuSans-30"/>
      </g>
     </g>
    </g>
    <g id="xtick_2">
     <g id="line2d_2">
      <g>
       <use xlink:href="#m80e6727143" x="116.932297" y="307.584" style="stroke: #000000; stroke-width: 0.8"/>
      </g>
     </g>
     <g id="text_2">
      <!-- 200 -->
      <g transform="translate(107.388547 322.182437) scale(0.1 -0.1)">
       <defs>
        <path id="DejaVuSans-32" d="M 1228 531 
L 3431 531 
L 3431 0 
L 469 0 
L 469 531 
Q 828 903 1448 1529 
Q 2069 2156 2228 2338 
Q 2531 2678 2651 2914 
Q 2772 3150 2772 3378 
Q 2772 3750 2511 3984 
Q 2250 4219 1831 4219 
Q 1534 4219 1204 4116 
Q 875 4013 500 3803 
L 500 4441 
Q 881 4594 1212 4672 
Q 1544 4750 1819 4750 
Q 2544 4750 2975 4387 
Q 3406 4025 3406 3419 
Q 3406 3131 3298 2873 
Q 3191 2616 2906 2266 
Q 2828 2175 2409 1742 
Q 1991 1309 1228 531 
z
" transform="scale(0.015625)"/>
       </defs>
       <use xlink:href="#DejaVuSans-32"/>
       <use xlink:href="#DejaVuSans-30" x="63.623047"/>
       <use xlink:href="#DejaVuSans-30" x="127.246094"/>
      </g>
     </g>
    </g>
    <g id="xtick_3">
     <g id="line2d_3">
      <g>
       <use xlink:href="#m80e6727143" x="160.248447" y="307.584" style="stroke: #000000; stroke-width: 0.8"/>
      </g>
     </g>
     <g id="text_3">
      <!-- 400 -->
      <g transform="translate(150.704697 322.182437) scale(0.1 -0.1)">
       <defs>
        <path id="DejaVuSans-34" d="M 2419 4116 
L 825 1625 
L 2419 1625 
L 2419 4116 
z
M 2253 4666 
L 3047 4666 
L 3047 1625 
L 3713 1625 
L 3713 1100 
L 3047 1100 
L 3047 0 
L 2419 0 
L 2419 1100 
L 313 1100 
L 313 1709 
L 2253 4666 
z
" transform="scale(0.015625)"/>
       </defs>
       <use xlink:href="#DejaVuSans-34"/>
       <use xlink:href="#DejaVuSans-30" x="63.623047"/>
       <use xlink:href="#DejaVuSans-30" x="127.246094"/>
      </g>
     </g>
    </g>
    <g id="xtick_4">
     <g id="line2d_4">
      <g>
       <use xlink:href="#m80e6727143" x="203.564597" y="307.584" style="stroke: #000000; stroke-width: 0.8"/>
      </g>
     </g>
     <g id="text_4">
      <!-- 600 -->
      <g transform="translate(194.020847 322.182437) scale(0.1 -0.1)">
       <defs>
        <path id="DejaVuSans-36" d="M 2113 2584 
Q 1688 2584 1439 2293 
Q 1191 2003 1191 1497 
Q 1191 994 1439 701 
Q 1688 409 2113 409 
Q 2538 409 2786 701 
Q 3034 994 3034 1497 
Q 3034 2003 2786 2293 
Q 2538 2584 2113 2584 
z
M 3366 4563 
L 3366 3988 
Q 3128 4100 2886 4159 
Q 2644 4219 2406 4219 
Q 1781 4219 1451 3797 
Q 1122 3375 1075 2522 
Q 1259 2794 1537 2939 
Q 1816 3084 2150 3084 
Q 2853 3084 3261 2657 
Q 3669 2231 3669 1497 
Q 3669 778 3244 343 
Q 2819 -91 2113 -91 
Q 1303 -91 875 529 
Q 447 1150 447 2328 
Q 447 3434 972 4092 
Q 1497 4750 2381 4750 
Q 2619 4750 2861 4703 
Q 3103 4656 3366 4563 
z
" transform="scale(0.015625)"/>
       </defs>
       <use xlink:href="#DejaVuSans-36"/>
       <use xlink:href="#DejaVuSans-30" x="63.623047"/>
       <use xlink:href="#DejaVuSans-30" x="127.246094"/>
      </g>
     </g>
    </g>
    <g id="xtick_5">
     <g id="line2d_5">
      <g>
       <use xlink:href="#m80e6727143" x="246.880747" y="307.584" style="stroke: #000000; stroke-width: 0.8"/>
      </g>
     </g>
     <g id="text_5">
      <!-- 800 -->
      <g transform="translate(237.336997 322.182437) scale(0.1 -0.1)">
       <defs>
        <path id="DejaVuSans-38" d="M 2034 2216 
Q 1584 2216 1326 1975 
Q 1069 1734 1069 1313 
Q 1069 891 1326 650 
Q 1584 409 2034 409 
Q 2484 409 2743 651 
Q 3003 894 3003 1313 
Q 3003 1734 2745 1975 
Q 2488 2216 2034 2216 
z
M 1403 2484 
Q 997 2584 770 2862 
Q 544 3141 544 3541 
Q 544 4100 942 4425 
Q 1341 4750 2034 4750 
Q 2731 4750 3128 4425 
Q 3525 4100 3525 3541 
Q 3525 3141 3298 2862 
Q 3072 2584 2669 2484 
Q 3125 2378 3379 2068 
Q 3634 1759 3634 1313 
Q 3634 634 3220 271 
Q 2806 -91 2034 -91 
Q 1263 -91 848 271 
Q 434 634 434 1313 
Q 434 1759 690 2068 
Q 947 2378 1403 2484 
z
M 1172 3481 
Q 1172 3119 1398 2916 
Q 1625 2713 2034 2713 
Q 2441 2713 2670 2916 
Q 2900 3119 2900 3481 
Q 2900 3844 2670 4047 
Q 2441 4250 2034 4250 
Q 1625 4250 1398 4047 
Q 1172 3844 1172 3481 
z
" transform="scale(0.015625)"/>
       </defs>
       <use xlink:href="#DejaVuSans-38"/>
       <use xlink:href="#DejaVuSans-30" x="63.623047"/>
       <use xlink:href="#DejaVuSans-30" x="127.246094"/>
      </g>
     </g>
    </g>
    <g id="xtick_6">
     <g id="line2d_6">
      <g>
       <use xlink:href="#m80e6727143" x="290.196897" y="307.584" style="stroke: #000000; stroke-width: 0.8"/>
      </g>
     </g>
     <g id="text_6">
      <!-- 1000 -->
      <g transform="translate(277.471897 322.182437) scale(0.1 -0.1)">
       <defs>
        <path id="DejaVuSans-31" d="M 794 531 
L 1825 531 
L 1825 4091 
L 703 3866 
L 703 4441 
L 1819 4666 
L 2450 4666 
L 2450 531 
L 3481 531 
L 3481 0 
L 794 0 
L 794 531 
z
" transform="scale(0.015625)"/>
       </defs>
       <use xlink:href="#DejaVuSans-31"/>
       <use xlink:href="#DejaVuSans-30" x="63.623047"/>
       <use xlink:href="#DejaVuSans-30" x="127.246094"/>
       <use xlink:href="#DejaVuSans-30" x="190.869141"/>
      </g>
     </g>
    </g>
    <g id="xtick_7">
     <g id="line2d_7">
      <g>
       <use xlink:href="#m80e6727143" x="333.513047" y="307.584" style="stroke: #000000; stroke-width: 0.8"/>
      </g>
     </g>
     <g id="text_7">
      <!-- 1200 -->
      <g transform="translate(320.788047 322.182437) scale(0.1 -0.1)">
       <use xlink:href="#DejaVuSans-31"/>
       <use xlink:href="#DejaVuSans-32" x="63.623047"/>
       <use xlink:href="#DejaVuSans-30" x="127.246094"/>
       <use xlink:href="#DejaVuSans-30" x="190.869141"/>
      </g>
     </g>
    </g>
    <g id="xtick_8">
     <g id="line2d_8">
      <g>
       <use xlink:href="#m80e6727143" x="376.829198" y="307.584" style="stroke: #000000; stroke-width: 0.8"/>
      </g>
     </g>
     <g id="text_8">
      <!-- 1400 -->
      <g transform="translate(364.104198 322.182437) scale(0.1 -0.1)">
       <use xlink:href="#DejaVuSans-31"/>
       <use xlink:href="#DejaVuSans-34" x="63.623047"/>
       <use xlink:href="#DejaVuSans-30" x="127.246094"/>
       <use xlink:href="#DejaVuSans-30" x="190.869141"/>
      </g>
     </g>
    </g>
    <g id="text_9">
     <!-- episodes -->
     <g transform="translate(214.000625 335.860562) scale(0.1 -0.1)">
      <defs>
       <path id="DejaVuSans-65" d="M 3597 1894 
L 3597 1613 
L 953 1613 
Q 991 1019 1311 708 
Q 1631 397 2203 397 
Q 2534 397 2845 478 
Q 3156 559 3463 722 
L 3463 178 
Q 3153 47 2828 -22 
Q 2503 -91 2169 -91 
Q 1331 -91 842 396 
Q 353 884 353 1716 
Q 353 2575 817 3079 
Q 1281 3584 2069 3584 
Q 2775 3584 3186 3129 
Q 3597 2675 3597 1894 
z
M 3022 2063 
Q 3016 2534 2758 2815 
Q 2500 3097 2075 3097 
Q 1594 3097 1305 2825 
Q 1016 2553 972 2059 
L 3022 2063 
z
" transform="scale(0.015625)"/>
       <path id="DejaVuSans-70" d="M 1159 525 
L 1159 -1331 
L 581 -1331 
L 581 3500 
L 1159 3500 
L 1159 2969 
Q 1341 3281 1617 3432 
Q 1894 3584 2278 3584 
Q 2916 3584 3314 3078 
Q 3713 2572 3713 1747 
Q 3713 922 3314 415 
Q 2916 -91 2278 -91 
Q 1894 -91 1617 61 
Q 1341 213 1159 525 
z
M 3116 1747 
Q 3116 2381 2855 2742 
Q 2594 3103 2138 3103 
Q 1681 3103 1420 2742 
Q 1159 2381 1159 1747 
Q 1159 1113 1420 752 
Q 1681 391 2138 391 
Q 2594 391 2855 752 
Q 3116 1113 3116 1747 
z
" transform="scale(0.015625)"/>
       <path id="DejaVuSans-69" d="M 603 3500 
L 1178 3500 
L 1178 0 
L 603 0 
L 603 3500 
z
M 603 4863 
L 1178 4863 
L 1178 4134 
L 603 4134 
L 603 4863 
z
" transform="scale(0.015625)"/>
       <path id="DejaVuSans-73" d="M 2834 3397 
L 2834 2853 
Q 2591 2978 2328 3040 
Q 2066 3103 1784 3103 
Q 1356 3103 1142 2972 
Q 928 2841 928 2578 
Q 928 2378 1081 2264 
Q 1234 2150 1697 2047 
L 1894 2003 
Q 2506 1872 2764 1633 
Q 3022 1394 3022 966 
Q 3022 478 2636 193 
Q 2250 -91 1575 -91 
Q 1294 -91 989 -36 
Q 684 19 347 128 
L 347 722 
Q 666 556 975 473 
Q 1284 391 1588 391 
Q 1994 391 2212 530 
Q 2431 669 2431 922 
Q 2431 1156 2273 1281 
Q 2116 1406 1581 1522 
L 1381 1569 
Q 847 1681 609 1914 
Q 372 2147 372 2553 
Q 372 3047 722 3315 
Q 1072 3584 1716 3584 
Q 2034 3584 2315 3537 
Q 2597 3491 2834 3397 
z
" transform="scale(0.015625)"/>
       <path id="DejaVuSans-6f" d="M 1959 3097 
Q 1497 3097 1228 2736 
Q 959 2375 959 1747 
Q 959 1119 1226 758 
Q 1494 397 1959 397 
Q 2419 397 2687 759 
Q 2956 1122 2956 1747 
Q 2956 2369 2687 2733 
Q 2419 3097 1959 3097 
z
M 1959 3584 
Q 2709 3584 3137 3096 
Q 3566 2609 3566 1747 
Q 3566 888 3137 398 
Q 2709 -91 1959 -91 
Q 1206 -91 779 398 
Q 353 888 353 1747 
Q 353 2609 779 3096 
Q 1206 3584 1959 3584 
z
" transform="scale(0.015625)"/>
       <path id="DejaVuSans-64" d="M 2906 2969 
L 2906 4863 
L 3481 4863 
L 3481 0 
L 2906 0 
L 2906 525 
Q 2725 213 2448 61 
Q 2172 -91 1784 -91 
Q 1150 -91 751 415 
Q 353 922 353 1747 
Q 353 2572 751 3078 
Q 1150 3584 1784 3584 
Q 2172 3584 2448 3432 
Q 2725 3281 2906 2969 
z
M 947 1747 
Q 947 1113 1208 752 
Q 1469 391 1925 391 
Q 2381 391 2643 752 
Q 2906 1113 2906 1747 
Q 2906 2381 2643 2742 
Q 2381 3103 1925 3103 
Q 1469 3103 1208 2742 
Q 947 2381 947 1747 
z
" transform="scale(0.015625)"/>
      </defs>
      <use xlink:href="#DejaVuSans-65"/>
      <use xlink:href="#DejaVuSans-70" x="61.523438"/>
      <use xlink:href="#DejaVuSans-69" x="125"/>
      <use xlink:href="#DejaVuSans-73" x="152.783203"/>
      <use xlink:href="#DejaVuSans-6f" x="204.882812"/>
      <use xlink:href="#DejaVuSans-64" x="266.064453"/>
      <use xlink:href="#DejaVuSans-65" x="329.541016"/>
      <use xlink:href="#DejaVuSans-73" x="391.064453"/>
     </g>
    </g>
   </g>
   <g id="matplotlib.axis_2">
    <g id="ytick_1">
     <g id="line2d_9">
      <defs>
       <path id="m089699f34a" d="M 0 0 
L -3.5 0 
" style="stroke: #000000; stroke-width: 0.8"/>
      </defs>
      <g>
       <use xlink:href="#m089699f34a" x="57.6" y="295.488" style="stroke: #000000; stroke-width: 0.8"/>
      </g>
     </g>
     <g id="text_10">
      <!-- 8 -->
      <g transform="translate(44.2375 299.287219) scale(0.1 -0.1)">
       <use xlink:href="#DejaVuSans-38"/>
      </g>
     </g>
    </g>
    <g id="ytick_2">
     <g id="line2d_10">
      <g>
       <use xlink:href="#m089699f34a" x="57.6" y="263.232" style="stroke: #000000; stroke-width: 0.8"/>
      </g>
     </g>
     <g id="text_11">
      <!-- 10 -->
      <g transform="translate(37.875 267.031219) scale(0.1 -0.1)">
       <use xlink:href="#DejaVuSans-31"/>
       <use xlink:href="#DejaVuSans-30" x="63.623047"/>
      </g>
     </g>
    </g>
    <g id="ytick_3">
     <g id="line2d_11">
      <g>
       <use xlink:href="#m089699f34a" x="57.6" y="230.976" style="stroke: #000000; stroke-width: 0.8"/>
      </g>
     </g>
     <g id="text_12">
      <!-- 12 -->
      <g transform="translate(37.875 234.775219) scale(0.1 -0.1)">
       <use xlink:href="#DejaVuSans-31"/>
       <use xlink:href="#DejaVuSans-32" x="63.623047"/>
      </g>
     </g>
    </g>
    <g id="ytick_4">
     <g id="line2d_12">
      <g>
       <use xlink:href="#m089699f34a" x="57.6" y="198.72" style="stroke: #000000; stroke-width: 0.8"/>
      </g>
     </g>
     <g id="text_13">
      <!-- 14 -->
      <g transform="translate(37.875 202.519219) scale(0.1 -0.1)">
       <use xlink:href="#DejaVuSans-31"/>
       <use xlink:href="#DejaVuSans-34" x="63.623047"/>
      </g>
     </g>
    </g>
    <g id="ytick_5">
     <g id="line2d_13">
      <g>
       <use xlink:href="#m089699f34a" x="57.6" y="166.464" style="stroke: #000000; stroke-width: 0.8"/>
      </g>
     </g>
     <g id="text_14">
      <!-- 16 -->
      <g transform="translate(37.875 170.263219) scale(0.1 -0.1)">
       <use xlink:href="#DejaVuSans-31"/>
       <use xlink:href="#DejaVuSans-36" x="63.623047"/>
      </g>
     </g>
    </g>
    <g id="ytick_6">
     <g id="line2d_14">
      <g>
       <use xlink:href="#m089699f34a" x="57.6" y="134.208" style="stroke: #000000; stroke-width: 0.8"/>
      </g>
     </g>
     <g id="text_15">
      <!-- 18 -->
      <g transform="translate(37.875 138.007219) scale(0.1 -0.1)">
       <use xlink:href="#DejaVuSans-31"/>
       <use xlink:href="#DejaVuSans-38" x="63.623047"/>
      </g>
     </g>
    </g>
    <g id="ytick_7">
     <g id="line2d_15">
      <g>
       <use xlink:href="#m089699f34a" x="57.6" y="101.952" style="stroke: #000000; stroke-width: 0.8"/>
      </g>
     </g>
     <g id="text_16">
      <!-- 20 -->
      <g transform="translate(37.875 105.751219) scale(0.1 -0.1)">
       <use xlink:href="#DejaVuSans-32"/>
       <use xlink:href="#DejaVuSans-30" x="63.623047"/>
      </g>
     </g>
    </g>
    <g id="ytick_8">
     <g id="line2d_16">
      <g>
       <use xlink:href="#m089699f34a" x="57.6" y="69.696" style="stroke: #000000; stroke-width: 0.8"/>
      </g>
     </g>
     <g id="text_17">
      <!-- 22 -->
      <g transform="translate(37.875 73.495219) scale(0.1 -0.1)">
       <use xlink:href="#DejaVuSans-32"/>
       <use xlink:href="#DejaVuSans-32" x="63.623047"/>
      </g>
     </g>
    </g>
    <g id="text_18">
     <!-- steps -->
     <g transform="translate(31.795313 187.948312) rotate(-90) scale(0.1 -0.1)">
      <defs>
       <path id="DejaVuSans-74" d="M 1172 4494 
L 1172 3500 
L 2356 3500 
L 2356 3053 
L 1172 3053 
L 1172 1153 
Q 1172 725 1289 603 
Q 1406 481 1766 481 
L 2356 481 
L 2356 0 
L 1766 0 
Q 1100 0 847 248 
Q 594 497 594 1153 
L 594 3053 
L 172 3053 
L 172 3500 
L 594 3500 
L 594 4494 
L 1172 4494 
z
" transform="scale(0.015625)"/>
      </defs>
      <use xlink:href="#DejaVuSans-73"/>
      <use xlink:href="#DejaVuSans-74" x="52.099609"/>
      <use xlink:href="#DejaVuSans-65" x="91.308594"/>
      <use xlink:href="#DejaVuSans-70" x="152.832031"/>
      <use xlink:href="#DejaVuSans-73" x="216.308594"/>
     </g>
    </g>
   </g>
   <g id="line2d_17">
    <path d="M 73.832727 279.36 
L 74.049308 263.232 
L 74.265889 279.36 
L 74.48247 263.232 
L 74.69905 263.232 
L 74.915631 279.36 
L 75.781954 279.36 
L 75.998535 263.232 
L 76.215116 295.488 
L 76.648277 263.232 
L 76.864858 279.36 
L 77.081439 279.36 
L 77.298019 263.232 
L 77.5146 279.36 
L 78.164342 279.36 
L 78.380923 295.488 
L 78.597504 263.232 
L 78.814085 279.36 
L 79.030665 279.36 
L 79.247246 263.232 
L 79.463827 279.36 
L 79.680408 263.232 
L 79.896988 279.36 
L 80.113569 279.36 
L 80.33015 263.232 
L 80.546731 279.36 
L 80.763311 263.232 
L 80.979892 295.488 
L 81.196473 263.232 
L 81.413054 279.36 
L 81.629634 263.232 
L 81.846215 263.232 
L 82.062796 279.36 
L 82.279377 263.232 
L 82.495957 279.36 
L 83.1457 279.36 
L 83.36228 295.488 
L 83.795442 263.232 
L 84.012023 279.36 
L 84.228603 263.232 
L 84.445184 279.36 
L 84.878346 247.104 
L 85.094926 279.36 
L 85.311507 263.232 
L 85.528088 279.36 
L 85.961249 279.36 
L 86.17783 295.488 
L 86.610992 263.232 
L 86.827572 263.232 
L 87.260734 295.488 
L 87.477315 247.104 
L 87.693895 279.36 
L 88.127057 279.36 
L 88.343638 295.488 
L 88.560218 263.232 
L 88.99338 263.232 
L 89.209961 279.36 
L 89.426541 279.36 
L 89.643122 263.232 
L 89.859703 295.488 
L 90.076284 263.232 
L 90.292864 279.36 
L 90.509445 247.104 
L 90.942607 279.36 
L 91.159187 279.36 
L 91.375768 295.488 
L 91.592349 263.232 
L 92.02551 295.488 
L 92.242091 263.232 
L 92.458672 263.232 
L 92.675253 279.36 
L 92.891833 263.232 
L 93.324995 263.232 
L 93.541576 279.36 
L 93.758156 263.232 
L 93.974737 295.488 
L 94.191318 263.232 
L 94.407899 263.232 
L 94.624479 279.36 
L 94.84106 279.36 
L 95.057641 263.232 
L 95.490802 295.488 
L 95.707383 279.36 
L 95.923964 247.104 
L 96.140545 279.36 
L 96.357125 263.232 
L 96.573706 263.232 
L 96.790287 279.36 
L 97.006868 279.36 
L 97.223448 295.488 
L 97.65661 263.232 
L 97.873191 263.232 
L 98.089771 247.104 
L 98.522933 279.36 
L 98.739514 263.232 
L 99.172675 263.232 
L 99.389256 279.36 
L 99.605837 263.232 
L 100.038998 263.232 
L 100.255579 279.36 
L 100.68874 279.36 
L 100.905321 247.104 
L 101.121902 263.232 
L 101.338483 263.232 
L 101.555063 279.36 
L 101.988225 279.36 
L 102.204806 263.232 
L 102.421386 279.36 
L 103.071129 279.36 
L 103.287709 263.232 
L 103.50429 263.232 
L 103.720871 279.36 
L 103.937452 263.232 
L 104.154032 295.488 
L 104.370613 295.488 
L 104.587194 263.232 
L 104.803775 279.36 
L 105.020355 279.36 
L 105.236936 247.104 
L 105.670098 279.36 
L 105.886678 279.36 
L 106.103259 263.232 
L 106.31984 279.36 
L 106.753001 279.36 
L 106.969582 295.488 
L 107.186163 279.36 
L 107.619324 279.36 
L 107.835905 263.232 
L 108.052486 279.36 
L 108.269067 279.36 
L 108.485647 263.232 
L 108.918809 263.232 
L 109.13539 295.488 
L 109.568551 263.232 
L 109.785132 263.232 
L 110.001713 279.36 
L 110.434874 279.36 
L 110.651455 247.104 
L 111.301197 295.488 
L 111.517778 295.488 
L 111.734359 279.36 
L 112.16752 279.36 
L 112.384101 263.232 
L 112.600682 279.36 
L 112.817262 247.104 
L 113.033843 263.232 
L 113.683585 263.232 
L 113.900166 247.104 
L 114.116747 295.488 
L 114.333328 263.232 
L 114.549908 263.232 
L 114.766489 247.104 
L 114.98307 279.36 
L 115.199651 279.36 
L 115.416231 263.232 
L 115.632812 279.36 
L 115.849393 263.232 
L 116.065974 295.488 
L 116.282554 263.232 
L 116.715716 263.232 
L 116.932297 279.36 
L 117.582039 279.36 
L 117.79862 263.232 
L 118.664943 263.232 
L 119.098104 295.488 
L 119.314685 263.232 
L 119.531266 263.232 
L 119.747846 295.488 
L 119.964427 279.36 
L 120.181008 295.488 
L 120.397589 279.36 
L 120.614169 279.36 
L 120.83075 263.232 
L 121.047331 279.36 
L 121.263912 263.232 
L 121.697073 263.232 
L 121.913654 295.488 
L 122.130235 279.36 
L 122.779977 279.36 
L 122.996558 263.232 
L 123.6463 263.232 
L 124.079461 295.488 
L 124.296042 279.36 
L 124.512623 279.36 
L 124.729204 263.232 
L 124.945784 295.488 
L 125.162365 279.36 
L 125.378946 295.488 
L 125.812107 263.232 
L 126.028688 279.36 
L 127.111592 279.36 
L 127.328173 263.232 
L 127.544753 279.36 
L 127.761334 263.232 
L 127.977915 279.36 
L 128.194496 279.36 
L 128.411076 263.232 
L 128.627657 263.232 
L 128.844238 279.36 
L 129.060819 279.36 
L 129.277399 295.488 
L 129.49398 263.232 
L 129.710561 263.232 
L 129.927142 295.488 
L 130.143722 263.232 
L 131.226626 263.232 
L 131.659788 295.488 
L 131.876368 263.232 
L 132.092949 279.36 
L 132.30953 263.232 
L 132.526111 279.36 
L 132.742691 263.232 
L 132.959272 263.232 
L 133.175853 295.488 
L 133.392434 263.232 
L 133.609014 279.36 
L 133.825595 247.104 
L 134.042176 295.488 
L 134.258757 247.104 
L 134.475337 279.36 
L 134.691918 279.36 
L 134.908499 295.488 
L 135.12508 279.36 
L 135.558241 279.36 
L 135.774822 263.232 
L 135.991403 263.232 
L 136.207984 295.488 
L 136.424564 263.232 
L 137.074307 263.232 
L 137.290887 279.36 
L 137.507468 263.232 
L 137.94063 263.232 
L 138.15721 279.36 
L 138.373791 279.36 
L 138.590372 263.232 
L 138.806953 279.36 
L 139.023533 263.232 
L 139.240114 263.232 
L 139.456695 295.488 
L 139.889856 263.232 
L 140.106437 279.36 
L 140.539599 247.104 
L 140.756179 263.232 
L 141.189341 263.232 
L 141.405922 279.36 
L 141.622502 279.36 
L 141.839083 263.232 
L 142.272245 263.232 
L 142.488825 279.36 
L 142.705406 279.36 
L 142.921987 263.232 
L 143.355148 295.488 
L 143.571729 279.36 
L 144.004891 279.36 
L 144.221471 263.232 
L 144.438052 263.232 
L 144.654633 295.488 
L 145.087794 263.232 
L 145.304375 279.36 
L 145.737537 279.36 
L 145.954117 263.232 
L 146.170698 279.36 
L 146.387279 279.36 
L 146.60386 247.104 
L 146.82044 263.232 
L 147.686763 263.232 
L 147.903344 295.488 
L 148.336506 263.232 
L 148.553086 279.36 
L 148.769667 263.232 
L 148.986248 279.36 
L 149.202829 279.36 
L 149.419409 263.232 
L 149.63599 263.232 
L 149.852571 247.104 
L 150.285732 279.36 
L 150.502313 263.232 
L 150.718894 295.488 
L 151.152055 263.232 
L 151.368636 279.36 
L 151.585217 279.36 
L 151.801798 263.232 
L 152.018378 279.36 
L 152.234959 279.36 
L 152.45154 263.232 
L 152.668121 295.488 
L 152.884701 263.232 
L 153.101282 279.36 
L 153.317863 279.36 
L 153.534444 263.232 
L 153.751024 263.232 
L 154.184186 295.488 
L 154.400767 263.232 
L 154.617347 295.488 
L 154.833928 263.232 
L 155.050509 279.36 
L 155.26709 279.36 
L 155.48367 263.232 
L 155.916832 263.232 
L 156.133413 279.36 
L 156.349993 279.36 
L 156.566574 263.232 
L 156.783155 295.488 
L 157.216316 263.232 
L 157.432897 263.232 
L 157.866059 295.488 
L 158.29922 263.232 
L 158.515801 279.36 
L 158.732382 263.232 
L 158.948962 279.36 
L 159.165543 263.232 
L 159.382124 263.232 
L 159.598705 279.36 
L 160.248447 279.36 
L 160.465028 263.232 
L 161.331351 263.232 
L 161.547931 295.488 
L 161.764512 295.488 
L 161.981093 263.232 
L 162.197674 279.36 
L 162.414254 263.232 
L 162.630835 263.232 
L 162.847416 279.36 
L 163.063997 263.232 
L 163.280577 263.232 
L 163.497158 295.488 
L 163.713739 263.232 
L 163.93032 295.488 
L 164.1469 295.488 
L 164.363481 263.232 
L 164.580062 279.36 
L 164.796643 279.36 
L 165.013223 263.232 
L 165.229804 295.488 
L 165.446385 263.232 
L 165.662966 263.232 
L 165.879546 279.36 
L 166.312708 279.36 
L 166.529289 263.232 
L 166.745869 263.232 
L 166.96245 279.36 
L 167.179031 279.36 
L 167.395612 247.104 
L 167.612192 279.36 
L 167.828773 279.36 
L 168.045354 263.232 
L 168.695096 263.232 
L 168.911677 295.488 
L 169.128258 279.36 
L 169.344838 279.36 
L 169.561419 263.232 
L 169.778 279.36 
L 169.994581 263.232 
L 170.211161 279.36 
L 170.427742 263.232 
L 170.644323 279.36 
L 170.860904 263.232 
L 171.077484 295.488 
L 171.294065 279.36 
L 171.727227 279.36 
L 171.943807 263.232 
L 172.160388 295.488 
L 172.376969 279.36 
L 172.59355 279.36 
L 173.026711 247.104 
L 173.243292 279.36 
L 173.459873 263.232 
L 174.109615 263.232 
L 174.326196 295.488 
L 174.542776 263.232 
L 174.975938 295.488 
L 175.192519 263.232 
L 175.409099 279.36 
L 175.62568 279.36 
L 175.842261 295.488 
L 176.058842 263.232 
L 176.275422 279.36 
L 176.492003 279.36 
L 176.708584 263.232 
L 177.141745 263.232 
L 177.574907 295.488 
L 177.791488 295.488 
L 178.008068 263.232 
L 178.224649 263.232 
L 178.44123 279.36 
L 178.657811 279.36 
L 178.874391 263.232 
L 179.090972 263.232 
L 179.307553 279.36 
L 179.524134 279.36 
L 179.740714 263.232 
L 179.957295 263.232 
L 180.173876 279.36 
L 180.390457 279.36 
L 180.607037 263.232 
L 180.823618 295.488 
L 181.040199 279.36 
L 181.25678 279.36 
L 181.47336 263.232 
L 181.689941 279.36 
L 181.906522 263.232 
L 182.123103 279.36 
L 182.339683 263.232 
L 182.556264 279.36 
L 182.772845 263.232 
L 182.989426 279.36 
L 183.206006 263.232 
L 183.422587 279.36 
L 183.639168 263.232 
L 184.072329 263.232 
L 184.28891 247.104 
L 184.722072 279.36 
L 184.938652 279.36 
L 185.155233 295.488 
L 185.371814 247.104 
L 185.588395 279.36 
L 185.804975 279.36 
L 186.021556 263.232 
L 186.238137 295.488 
L 186.671298 263.232 
L 186.887879 295.488 
L 187.10446 279.36 
L 187.321041 279.36 
L 187.537621 263.232 
L 187.970783 263.232 
L 188.187364 279.36 
L 188.403944 263.232 
L 188.620525 279.36 
L 189.053687 279.36 
L 189.270267 53.568 
L 189.486848 263.232 
L 189.703429 247.104 
L 190.13659 295.488 
L 190.353171 263.232 
L 190.569752 295.488 
L 190.786333 295.488 
L 191.002913 263.232 
L 191.436075 263.232 
L 191.652656 279.36 
L 191.869236 279.36 
L 192.085817 263.232 
L 192.302398 279.36 
L 192.518979 263.232 
L 192.735559 263.232 
L 192.95214 279.36 
L 193.168721 279.36 
L 193.385302 263.232 
L 194.035044 263.232 
L 194.251625 279.36 
L 194.468205 263.232 
L 194.684786 263.232 
L 194.901367 295.488 
L 195.334528 263.232 
L 195.551109 279.36 
L 195.76769 263.232 
L 196.417432 263.232 
L 196.634013 279.36 
L 196.850594 263.232 
L 197.283755 295.488 
L 197.500336 295.488 
L 197.933497 263.232 
L 198.150078 279.36 
L 198.366659 279.36 
L 198.58324 263.232 
L 198.79982 279.36 
L 199.016401 279.36 
L 199.232982 295.488 
L 199.449563 295.488 
L 199.666143 263.232 
L 200.099305 263.232 
L 200.315886 279.36 
L 200.965628 279.36 
L 201.182209 263.232 
L 201.398789 279.36 
L 201.831951 279.36 
L 202.048532 263.232 
L 202.265112 279.36 
L 202.481693 279.36 
L 202.698274 263.232 
L 202.914855 295.488 
L 203.131436 263.232 
L 203.348016 295.488 
L 203.564597 295.488 
L 203.781178 279.36 
L 203.997759 279.36 
L 204.214339 263.232 
L 204.43092 295.488 
L 204.864082 263.232 
L 205.080662 295.488 
L 205.297243 263.232 
L 205.513824 279.36 
L 205.946985 279.36 
L 206.163566 263.232 
L 206.380147 295.488 
L 206.596728 263.232 
L 206.813308 263.232 
L 207.029889 279.36 
L 207.24647 279.36 
L 207.463051 263.232 
L 207.679631 263.232 
L 207.896212 279.36 
L 208.112793 263.232 
L 208.329374 295.488 
L 208.545954 279.36 
L 208.979116 279.36 
L 209.412277 247.104 
L 209.628858 247.104 
L 210.06202 295.488 
L 210.2786 263.232 
L 210.495181 279.36 
L 210.711762 279.36 
L 210.928343 263.232 
L 211.144923 279.36 
L 211.361504 247.104 
L 211.578085 279.36 
L 211.794666 263.232 
L 212.011246 279.36 
L 212.227827 263.232 
L 212.444408 263.232 
L 212.660989 279.36 
L 212.877569 279.36 
L 213.09415 263.232 
L 213.310731 295.488 
L 213.527312 295.488 
L 213.743892 279.36 
L 214.393635 279.36 
L 214.610215 263.232 
L 214.826796 279.36 
L 215.043377 263.232 
L 215.259958 279.36 
L 215.476538 279.36 
L 215.693119 263.232 
L 215.9097 263.232 
L 216.126281 279.36 
L 216.342861 279.36 
L 216.559442 263.232 
L 216.776023 279.36 
L 216.992604 279.36 
L 217.209184 263.232 
L 217.425765 279.36 
L 217.642346 247.104 
L 217.858927 263.232 
L 218.075507 247.104 
L 218.292088 279.36 
L 218.94183 279.36 
L 219.158411 295.488 
L 219.374992 279.36 
L 219.591573 295.488 
L 219.808153 263.232 
L 220.024734 279.36 
L 220.241315 263.232 
L 220.457896 279.36 
L 220.891057 247.104 
L 221.107638 247.104 
L 221.324219 263.232 
L 221.540799 263.232 
L 221.75738 279.36 
L 222.190542 247.104 
L 222.407122 279.36 
L 223.056865 279.36 
L 223.273445 295.488 
L 223.490026 263.232 
L 223.706607 263.232 
L 223.923188 279.36 
L 224.139768 247.104 
L 224.57293 279.36 
L 224.789511 263.232 
L 225.006091 279.36 
L 225.222672 279.36 
L 225.439253 263.232 
L 225.655834 279.36 
L 225.872414 263.232 
L 226.305576 263.232 
L 226.738737 295.488 
L 226.955318 263.232 
L 227.38848 263.232 
L 227.60506 295.488 
L 227.821641 295.488 
L 228.038222 247.104 
L 228.254803 295.488 
L 228.687964 263.232 
L 228.904545 279.36 
L 229.337706 279.36 
L 229.554287 263.232 
L 229.770868 263.232 
L 230.204029 295.488 
L 230.42061 279.36 
L 230.637191 279.36 
L 230.853772 247.104 
L 231.070352 279.36 
L 231.286933 279.36 
L 231.503514 263.232 
L 231.720095 295.488 
L 232.153256 263.232 
L 232.369837 295.488 
L 232.586418 295.488 
L 233.019579 263.232 
L 233.23616 279.36 
L 233.669321 279.36 
L 233.885902 295.488 
L 234.102483 263.232 
L 234.319064 279.36 
L 234.535644 263.232 
L 234.752225 279.36 
L 234.968806 279.36 
L 235.185387 263.232 
L 235.401967 279.36 
L 235.618548 263.232 
L 235.835129 263.232 
L 236.05171 295.488 
L 236.26829 263.232 
L 236.484871 295.488 
L 236.701452 279.36 
L 236.918033 279.36 
L 237.134613 263.232 
L 237.351194 279.36 
L 237.784356 247.104 
L 238.000936 263.232 
L 238.217517 263.232 
L 238.434098 279.36 
L 238.650679 263.232 
L 238.867259 279.36 
L 239.08384 279.36 
L 239.300421 295.488 
L 239.517002 247.104 
L 239.733582 263.232 
L 239.950163 263.232 
L 240.166744 279.36 
L 240.383325 279.36 
L 240.599905 263.232 
L 241.033067 295.488 
L 241.249648 279.36 
L 241.466228 279.36 
L 241.682809 263.232 
L 241.89939 263.232 
L 242.115971 295.488 
L 242.332551 279.36 
L 242.982294 279.36 
L 243.198874 263.232 
L 243.415455 263.232 
L 243.848617 295.488 
L 244.281778 295.488 
L 244.71494 263.232 
L 244.93152 263.232 
L 245.364682 295.488 
L 245.797843 247.104 
L 246.014424 295.488 
L 246.231005 279.36 
L 247.530489 279.36 
L 247.74707 295.488 
L 247.963651 279.36 
L 248.180232 279.36 
L 248.613393 247.104 
L 248.829974 279.36 
L 249.046555 279.36 
L 249.263135 263.232 
L 249.479716 263.232 
L 249.696297 279.36 
L 249.912878 279.36 
L 250.129458 263.232 
L 250.346039 279.36 
L 250.56262 279.36 
L 250.779201 295.488 
L 250.995781 279.36 
L 251.212362 279.36 
L 251.428943 263.232 
L 251.645524 263.232 
L 251.862104 295.488 
L 252.078685 263.232 
L 252.295266 263.232 
L 252.511847 295.488 
L 252.728427 279.36 
L 252.945008 295.488 
L 253.161589 263.232 
L 253.37817 295.488 
L 253.59475 279.36 
L 254.244493 279.36 
L 254.461073 263.232 
L 254.677654 263.232 
L 254.894235 247.104 
L 255.110816 263.232 
L 257.060042 263.232 
L 257.276623 295.488 
L 257.493204 279.36 
L 257.709785 279.36 
L 257.926365 263.232 
L 258.142946 279.36 
L 258.359527 263.232 
L 258.576108 279.36 
L 258.792688 279.36 
L 259.009269 263.232 
L 259.442431 263.232 
L 259.659011 279.36 
L 259.875592 263.232 
L 260.092173 279.36 
L 260.308754 263.232 
L 260.525334 279.36 
L 260.741915 263.232 
L 260.958496 279.36 
L 261.175077 263.232 
L 261.391657 279.36 
L 261.608238 279.36 
L 261.824819 295.488 
L 262.0414 263.232 
L 262.25798 295.488 
L 262.691142 263.232 
L 263.124303 263.232 
L 263.340884 279.36 
L 263.557465 263.232 
L 263.990626 263.232 
L 264.207207 279.36 
L 264.423788 263.232 
L 264.640369 295.488 
L 265.07353 263.232 
L 265.506692 295.488 
L 265.939853 263.232 
L 266.589595 263.232 
L 266.806176 279.36 
L 267.022757 263.232 
L 267.239338 263.232 
L 267.455918 279.36 
L 267.672499 263.232 
L 267.88908 263.232 
L 268.105661 247.104 
L 268.322241 247.104 
L 268.538822 279.36 
L 268.755403 279.36 
L 268.971984 263.232 
L 269.188564 279.36 
L 269.405145 263.232 
L 269.838307 263.232 
L 270.054888 279.36 
L 270.271468 263.232 
L 270.488049 279.36 
L 271.137791 279.36 
L 271.354372 263.232 
L 272.437276 263.232 
L 272.653857 295.488 
L 272.870437 263.232 
L 273.087018 263.232 
L 273.52018 295.488 
L 273.73676 263.232 
L 273.953341 263.232 
L 274.386503 295.488 
L 274.603083 263.232 
L 274.819664 279.36 
L 275.036245 263.232 
L 275.469406 263.232 
L 275.902568 295.488 
L 276.119149 263.232 
L 276.335729 263.232 
L 276.55231 295.488 
L 276.768891 263.232 
L 276.985472 263.232 
L 277.202052 279.36 
L 277.418633 263.232 
L 277.635214 263.232 
L 277.851795 295.488 
L 278.068375 263.232 
L 278.284956 263.232 
L 278.501537 279.36 
L 279.151279 279.36 
L 279.36786 263.232 
L 279.584441 279.36 
L 279.801021 279.36 
L 280.017602 263.232 
L 280.234183 279.36 
L 280.450764 279.36 
L 280.667344 263.232 
L 280.883925 263.232 
L 281.100506 279.36 
L 281.317087 279.36 
L 281.533667 263.232 
L 281.750248 279.36 
L 281.966829 279.36 
L 282.18341 263.232 
L 282.39999 279.36 
L 282.616571 263.232 
L 282.833152 295.488 
L 283.049733 295.488 
L 283.266313 247.104 
L 283.482894 279.36 
L 283.699475 263.232 
L 283.916056 279.36 
L 284.349217 279.36 
L 284.565798 263.232 
L 284.782379 295.488 
L 285.21554 263.232 
L 285.432121 279.36 
L 285.865282 279.36 
L 286.081863 263.232 
L 286.948186 263.232 
L 287.164767 279.36 
L 288.247671 279.36 
L 288.464251 263.232 
L 288.680832 263.232 
L 289.113994 295.488 
L 289.547155 263.232 
L 289.763736 279.36 
L 289.980317 263.232 
L 290.196897 295.488 
L 290.413478 263.232 
L 290.630059 295.488 
L 290.84664 279.36 
L 291.06322 295.488 
L 291.279801 279.36 
L 291.929543 279.36 
L 292.146124 263.232 
L 292.362705 279.36 
L 292.579286 263.232 
L 292.795866 263.232 
L 293.229028 295.488 
L 293.445609 263.232 
L 293.662189 295.488 
L 294.095351 263.232 
L 294.311932 279.36 
L 294.528512 263.232 
L 294.961674 263.232 
L 295.178255 295.488 
L 295.394835 279.36 
L 295.611416 279.36 
L 295.827997 263.232 
L 296.261158 295.488 
L 296.477739 263.232 
L 296.69432 279.36 
L 296.910901 263.232 
L 297.127481 279.36 
L 297.560643 279.36 
L 297.777224 295.488 
L 298.210385 263.232 
L 298.426966 295.488 
L 298.643547 263.232 
L 298.860127 279.36 
L 299.076708 263.232 
L 299.293289 279.36 
L 299.50987 279.36 
L 299.72645 295.488 
L 300.159612 247.104 
L 300.592773 279.36 
L 300.809354 263.232 
L 301.242516 263.232 
L 301.459096 279.36 
L 301.892258 279.36 
L 302.108839 263.232 
L 302.325419 295.488 
L 302.542 247.104 
L 302.758581 279.36 
L 302.975162 279.36 
L 303.191742 295.488 
L 303.408323 279.36 
L 303.624904 279.36 
L 303.841485 263.232 
L 304.058065 263.232 
L 304.274646 295.488 
L 304.491227 295.488 
L 304.707808 279.36 
L 304.924388 279.36 
L 305.140969 263.232 
L 305.35755 295.488 
L 305.574131 279.36 
L 305.790711 279.36 
L 306.007292 263.232 
L 306.440454 295.488 
L 306.657034 263.232 
L 306.873615 263.232 
L 307.090196 295.488 
L 307.306777 295.488 
L 307.739938 263.232 
L 307.956519 279.36 
L 308.1731 263.232 
L 308.38968 263.232 
L 308.606261 279.36 
L 308.822842 263.232 
L 309.039423 263.232 
L 309.256003 295.488 
L 309.472584 295.488 
L 309.689165 263.232 
L 309.905746 279.36 
L 310.122326 263.232 
L 310.338907 279.36 
L 310.555488 263.232 
L 310.772069 263.232 
L 310.988649 279.36 
L 311.421811 279.36 
L 311.638392 295.488 
L 311.854972 279.36 
L 312.288134 279.36 
L 312.504715 263.232 
L 312.721295 279.36 
L 312.937876 247.104 
L 313.371038 279.36 
L 313.587618 279.36 
L 313.804199 263.232 
L 314.237361 263.232 
L 314.453941 295.488 
L 314.670522 247.104 
L 315.103684 279.36 
L 315.536845 247.104 
L 315.753426 263.232 
L 316.186587 263.232 
L 316.403168 279.36 
L 316.619749 279.36 
L 316.83633 263.232 
L 317.05291 263.232 
L 317.269491 279.36 
L 317.919233 279.36 
L 318.135814 295.488 
L 318.352395 263.232 
L 318.568976 279.36 
L 318.785556 263.232 
L 319.435299 263.232 
L 319.86846 295.488 
L 320.085041 263.232 
L 321.167945 263.232 
L 321.384525 295.488 
L 321.601106 279.36 
L 321.817687 295.488 
L 322.034268 295.488 
L 322.467429 263.232 
L 322.68401 263.232 
L 322.900591 279.36 
L 323.117171 263.232 
L 323.333752 279.36 
L 323.550333 263.232 
L 323.766914 263.232 
L 323.983494 279.36 
L 324.200075 247.104 
L 324.416656 263.232 
L 324.633237 295.488 
L 325.066398 263.232 
L 325.282979 263.232 
L 325.49956 279.36 
L 325.71614 279.36 
L 325.932721 263.232 
L 326.149302 295.488 
L 326.365883 279.36 
L 327.448786 279.36 
L 327.665367 295.488 
L 327.881948 263.232 
L 328.315109 263.232 
L 328.53169 295.488 
L 328.748271 263.232 
L 328.964852 279.36 
L 329.181432 263.232 
L 329.398013 279.36 
L 329.614594 279.36 
L 329.831175 263.232 
L 330.047755 263.232 
L 330.264336 295.488 
L 330.697498 263.232 
L 330.914078 263.232 
L 331.130659 279.36 
L 331.563821 247.104 
L 331.780401 279.36 
L 331.996982 263.232 
L 332.213563 263.232 
L 332.430144 295.488 
L 332.646724 295.488 
L 332.863305 263.232 
L 333.513047 263.232 
L 333.729628 295.488 
L 333.946209 279.36 
L 335.245693 279.36 
L 335.462274 263.232 
L 335.678855 279.36 
L 335.895436 263.232 
L 336.112016 279.36 
L 336.761759 279.36 
L 336.978339 263.232 
L 337.19492 279.36 
L 337.411501 279.36 
L 337.844663 247.104 
L 338.061243 263.232 
L 338.277824 295.488 
L 338.494405 279.36 
L 338.710986 295.488 
L 338.927566 263.232 
L 339.144147 263.232 
L 339.577309 295.488 
L 339.793889 279.36 
L 340.01047 295.488 
L 340.227051 279.36 
L 340.443632 295.488 
L 340.660212 295.488 
L 341.093374 247.104 
L 341.309955 263.232 
L 341.526535 263.232 
L 341.743116 295.488 
L 342.176278 263.232 
L 342.609439 263.232 
L 342.82602 295.488 
L 343.259181 263.232 
L 343.475762 279.36 
L 343.692343 263.232 
L 343.908924 263.232 
L 344.125504 279.36 
L 344.342085 263.232 
L 344.775247 295.488 
L 344.991827 263.232 
L 345.208408 279.36 
L 345.424989 279.36 
L 345.64157 263.232 
L 346.074731 263.232 
L 346.291312 279.36 
L 346.507893 263.232 
L 346.724473 279.36 
L 346.941054 247.104 
L 347.157635 279.36 
L 347.374216 263.232 
L 347.590796 295.488 
L 348.023958 263.232 
L 348.240539 279.36 
L 348.890281 279.36 
L 349.106862 263.232 
L 349.973185 263.232 
L 350.189765 279.36 
L 350.622927 279.36 
L 350.839508 263.232 
L 351.272669 263.232 
L 351.48925 279.36 
L 351.705831 279.36 
L 351.922411 263.232 
L 352.355573 263.232 
L 352.572154 279.36 
L 353.005315 279.36 
L 353.221896 295.488 
L 353.438477 295.488 
L 353.871638 263.232 
L 354.088219 295.488 
L 354.3048 247.104 
L 354.52138 279.36 
L 354.737961 263.232 
L 354.954542 279.36 
L 355.387703 247.104 
L 355.604284 263.232 
L 356.037446 263.232 
L 356.254026 295.488 
L 356.470607 295.488 
L 356.687188 279.36 
L 357.770092 279.36 
L 357.986672 295.488 
L 358.419834 263.232 
L 358.636415 279.36 
L 358.852995 263.232 
L 359.069576 279.36 
L 359.286157 247.104 
L 359.502738 295.488 
L 359.719318 263.232 
L 360.369061 263.232 
L 360.585641 279.36 
L 360.802222 263.232 
L 361.018803 279.36 
L 361.235384 263.232 
L 361.668545 295.488 
L 362.101707 247.104 
L 362.318287 263.232 
L 362.534868 263.232 
L 362.751449 247.104 
L 362.96803 279.36 
L 363.18461 263.232 
L 363.401191 263.232 
L 363.617772 279.36 
L 363.834353 279.36 
L 364.050933 263.232 
L 364.267514 295.488 
L 364.484095 279.36 
L 365.783579 279.36 
L 366.00016 263.232 
L 366.433322 263.232 
L 366.649902 279.36 
L 367.083064 279.36 
L 367.299645 263.232 
L 367.516225 263.232 
L 367.732806 279.36 
L 367.949387 263.232 
L 368.165968 295.488 
L 368.382548 279.36 
L 368.599129 279.36 
L 368.81571 263.232 
L 369.032291 279.36 
L 369.898614 279.36 
L 370.115194 263.232 
L 370.331775 279.36 
L 370.548356 247.104 
L 370.764937 263.232 
L 370.981517 263.232 
L 371.198098 295.488 
L 371.414679 295.488 
L 371.63126 279.36 
L 371.84784 279.36 
L 372.064421 263.232 
L 372.281002 279.36 
L 372.497583 263.232 
L 372.714163 279.36 
L 372.930744 263.232 
L 373.147325 279.36 
L 373.363906 263.232 
L 373.797067 263.232 
L 374.013648 279.36 
L 374.230229 263.232 
L 374.446809 279.36 
L 374.879971 279.36 
L 375.096552 263.232 
L 375.313132 295.488 
L 375.529713 263.232 
L 375.746294 279.36 
L 375.962875 247.104 
L 376.179455 295.488 
L 376.396036 263.232 
L 376.612617 263.232 
L 376.829198 295.488 
L 377.045778 279.36 
L 377.262359 279.36 
L 377.47894 263.232 
L 377.695521 279.36 
L 377.912101 263.232 
L 378.345263 263.232 
L 378.561844 279.36 
L 378.778424 263.232 
L 378.995005 279.36 
L 379.211586 263.232 
L 379.428167 279.36 
L 380.077909 279.36 
L 380.29449 263.232 
L 380.51107 279.36 
L 380.727651 279.36 
L 380.944232 263.232 
L 381.160813 263.232 
L 381.377393 295.488 
L 381.593974 263.232 
L 382.027136 295.488 
L 382.460297 263.232 
L 382.676878 279.36 
L 383.32662 279.36 
L 383.543201 295.488 
L 383.759782 279.36 
L 383.976362 279.36 
L 384.192943 263.232 
L 384.626105 263.232 
L 385.059266 295.488 
L 385.492428 263.232 
L 385.709008 263.232 
L 385.925589 279.36 
L 386.14217 263.232 
L 386.575331 295.488 
L 386.791912 263.232 
L 387.225074 263.232 
L 387.441654 279.36 
L 387.658235 263.232 
L 387.874816 263.232 
L 388.307977 295.488 
L 388.524558 263.232 
L 388.741139 279.36 
L 388.95772 263.232 
L 389.1743 295.488 
L 389.390881 247.104 
L 389.824043 295.488 
L 390.040623 279.36 
L 390.257204 279.36 
L 390.473785 263.232 
L 390.906946 295.488 
L 391.123527 263.232 
L 391.340108 279.36 
L 391.773269 247.104 
L 391.98985 263.232 
L 392.206431 295.488 
L 392.423012 263.232 
L 392.856173 263.232 
L 393.072754 279.36 
L 393.289335 263.232 
L 393.505915 279.36 
L 393.722496 247.104 
L 393.939077 279.36 
L 394.155658 279.36 
L 394.372238 247.104 
L 394.588819 247.104 
L 394.8054 279.36 
L 395.021981 279.36 
L 395.238561 295.488 
L 395.455142 263.232 
L 395.671723 263.232 
L 395.888304 295.488 
L 396.104884 263.232 
L 396.321465 279.36 
L 396.538046 263.232 
L 396.754627 263.232 
L 396.971207 295.488 
L 397.187788 279.36 
L 397.404369 279.36 
L 397.62095 263.232 
L 397.83753 263.232 
L 398.054111 295.488 
L 398.270692 279.36 
L 398.487273 279.36 
L 398.487273 279.36 
" clip-path="url(#pff39d4bf26)" style="fill: none; stroke: #1f77b4; stroke-width: 1.5; stroke-linecap: square"/>
   </g>
   <g id="patch_3">
    <path d="M 57.6 307.584 
L 57.6 41.472 
" style="fill: none; stroke: #000000; stroke-width: 0.8; stroke-linejoin: miter; stroke-linecap: square"/>
   </g>
   <g id="patch_4">
    <path d="M 414.72 307.584 
L 414.72 41.472 
" style="fill: none; stroke: #000000; stroke-width: 0.8; stroke-linejoin: miter; stroke-linecap: square"/>
   </g>
   <g id="patch_5">
    <path d="M 57.6 307.584 
L 414.72 307.584 
" style="fill: none; stroke: #000000; stroke-width: 0.8; stroke-linejoin: miter; stroke-linecap: square"/>
   </g>
   <g id="patch_6">
    <path d="M 57.6 41.472 
L 414.72 41.472 
" style="fill: none; stroke: #000000; stroke-width: 0.8; stroke-linejoin: miter; stroke-linecap: square"/>
   </g>
   <g id="text_19">
    <!-- steps-episodes -->
    <g transform="translate(191.299688 35.472) scale(0.12 -0.12)">
     <defs>
      <path id="DejaVuSans-2d" d="M 313 2009 
L 1997 2009 
L 1997 1497 
L 313 1497 
L 313 2009 
z
" transform="scale(0.015625)"/>
     </defs>
     <use xlink:href="#DejaVuSans-73"/>
     <use xlink:href="#DejaVuSans-74" x="52.099609"/>
     <use xlink:href="#DejaVuSans-65" x="91.308594"/>
     <use xlink:href="#DejaVuSans-70" x="152.832031"/>
     <use xlink:href="#DejaVuSans-73" x="216.308594"/>
     <use xlink:href="#DejaVuSans-2d" x="268.408203"/>
     <use xlink:href="#DejaVuSans-65" x="304.492188"/>
     <use xlink:href="#DejaVuSans-70" x="366.015625"/>
     <use xlink:href="#DejaVuSans-69" x="429.492188"/>
     <use xlink:href="#DejaVuSans-73" x="457.275391"/>
     <use xlink:href="#DejaVuSans-6f" x="509.375"/>
     <use xlink:href="#DejaVuSans-64" x="570.556641"/>
     <use xlink:href="#DejaVuSans-65" x="634.033203"/>
     <use xlink:href="#DejaVuSans-73" x="695.556641"/>
    </g>
   </g>
   <g id="legend_1">
    <g id="patch_7">
     <path d="M 403.72 54.472 
L 407.72 54.472 
Q 409.72 54.472 409.72 52.472 
L 409.72 48.472 
Q 409.72 46.472 407.72 46.472 
L 403.72 46.472 
Q 401.72 46.472 401.72 48.472 
L 401.72 52.472 
Q 401.72 54.472 403.72 54.472 
z
" style="fill: #ffffff; opacity: 0.8; stroke: #cccccc; stroke-linejoin: miter"/>
    </g>
   </g>
  </g>
 </g>
 <defs>
  <clipPath id="pff39d4bf26">
   <rect x="57.6" y="41.472" width="357.12" height="266.112"/>
  </clipPath>
 </defs>
</svg>
